<svg xmlns="http://www.w3.org/2000/svg" xmlns:xlink="http://www.w3.org/1999/xlink" viewBox="0 0 290.69 270.13"><defs><style>.cls-1{fill:gray;}.cls-2{fill:#fff;}.cls-3{fill:url(#linear-gradient);}.cls-4{fill:url(#linear-gradient-2);}.cls-5{fill:url(#linear-gradient-3);}.cls-6{fill:url(#linear-gradient-4);}.cls-7{fill:url(#linear-gradient-5);}.cls-8{fill:url(#linear-gradient-6);}.cls-9{fill:url(#linear-gradient-7);}.cls-10{fill:url(#linear-gradient-8);}.cls-11{fill:url(#linear-gradient-9);}.cls-12{fill:url(#linear-gradient-10);}</style><linearGradient id="linear-gradient" x1="125.99" y1="81.63" x2="145.54" y2="81.63" gradientUnits="userSpaceOnUse"><stop offset="0.01" stop-color="#343434"/><stop offset="0.03" stop-color="#414141"/><stop offset="0.4" stop-color="#c2c2c2"/><stop offset="0.78" stop-color="#777"/><stop offset="1"/></linearGradient><linearGradient id="linear-gradient-2" x1="124.11" y1="95.67" x2="136.98" y2="95.67" xlink:href="#linear-gradient"/><linearGradient id="linear-gradient-3" x1="138.43" y1="80.25" x2="154.78" y2="80.25" xlink:href="#linear-gradient"/><linearGradient id="linear-gradient-4" x1="155.57" y1="85.57" x2="165.85" y2="85.57" xlink:href="#linear-gradient"/><linearGradient id="linear-gradient-5" x1="146.9" y1="110.02" x2="166.43" y2="110.02" xlink:href="#linear-gradient"/><linearGradient id="linear-gradient-6" x1="137.84" y1="111.56" x2="153.44" y2="111.56" xlink:href="#linear-gradient"/><linearGradient id="linear-gradient-7" x1="126.86" y1="106.28" x2="137.11" y2="106.28" xlink:href="#linear-gradient"/><linearGradient id="linear-gradient-8" x1="155.9" y1="96.33" x2="168.36" y2="96.33" xlink:href="#linear-gradient"/><linearGradient id="linear-gradient-9" x1="96.52" y1="92.52" x2="194.17" y2="92.52" xlink:href="#linear-gradient"/><linearGradient id="linear-gradient-10" x1="28.37" y1="-14.22" x2="232.67" y2="172.48" gradientUnits="userSpaceOnUse"><stop offset="0.01" stop-color="#343434"/><stop offset="0.4" stop-color="#c2c2c2"/><stop offset="0.78" stop-color="#777"/><stop offset="0.98" stop-color="#414141"/></linearGradient></defs><g id="Layer_2" data-name="Layer 2"><g id="Layer_1-2" data-name="Layer 1"><path class="cls-1" d="M24.86,200.15H14.43v22.91H9.84V200.23H0v-4.59H24.86Z"/><path class="cls-1" d="M51.89,223.33H47.34V211.39H36v11.94H31.47V195.91H36v10.7H47.3v-10.7h4.59Z"/><path class="cls-1" d="M78.42,223.33H58.62V195.91h19.8v4.63H63.17v6h11v4.78h-11v7.32H78.42Z"/><path class="cls-2" d="M118.6,223.33l-18.48-16.1v16.1H95.46V195.91L113.93,212v-16.1h4.67Z"/><path class="cls-2" d="M119.1,224.43l-18.48-16.1v15.5H95v-29l18.47,16.11V195.41h5.67ZM96,222.83h3.66v-16.7l18.48,16.11V196.41h-3.67v16.7L96,197Z"/><path class="cls-2" d="M153.77,209.64a13.57,13.57,0,0,1-1.09,5.43,13.91,13.91,0,0,1-3,4.35,13.85,13.85,0,0,1-15.07,2.86,13.39,13.39,0,0,1-4.36-3,14,14,0,0,1-2.9-4.38,13.9,13.9,0,0,1,0-10.6,13.62,13.62,0,0,1,7.26-7.33,14,14,0,0,1,10.85,0,13.59,13.59,0,0,1,4.34,3,13.74,13.74,0,0,1,2.88,4.37A13.6,13.6,0,0,1,153.77,209.64Zm-4.63,0a8.4,8.4,0,0,0-.72-3.42,9.19,9.19,0,0,0-2-2.86,9.52,9.52,0,0,0-2.88-2,9,9,0,0,0-7,0,9.52,9.52,0,0,0-2.88,2,9.16,9.16,0,0,0-2,2.86,8.48,8.48,0,0,0,0,6.84,9,9,0,0,0,2,2.86,9.52,9.52,0,0,0,2.88,2,8.6,8.6,0,0,0,3.5.72,8.81,8.81,0,0,0,3.39-.68,9.68,9.68,0,0,0,2.9-1.89,9.35,9.35,0,0,0,2-2.84A8.39,8.39,0,0,0,149.14,209.64Z"/><path class="cls-2" d="M140.07,223.87a14,14,0,0,1-5.62-1.13,14.27,14.27,0,0,1-4.52-3.08,14.49,14.49,0,0,1-3-4.53,14.35,14.35,0,0,1,3-15.53,14.5,14.5,0,0,1,4.52-3.06,14.21,14.21,0,0,1,15.74,3.07,14.32,14.32,0,0,1,4.08,10,13.92,13.92,0,0,1-1.14,5.63,14.1,14.1,0,0,1-7.57,7.51A13.94,13.94,0,0,1,140.07,223.87Zm0-27.46a13.16,13.16,0,0,0-9.42,3.9,13.35,13.35,0,0,0-2.8,14.43,13.76,13.76,0,0,0,2.8,4.22,13.09,13.09,0,0,0,4.2,2.86,13.44,13.44,0,0,0,10.32,0,13.11,13.11,0,0,0,7.05-7,13.13,13.13,0,0,0,1.05-5.23,13,13,0,0,0-1-5.11,13.22,13.22,0,0,0-2.77-4.22,13.07,13.07,0,0,0-9.41-3.9Zm0,22.68a9.21,9.21,0,0,1-3.7-.76,10.19,10.19,0,0,1-3-2.05,9.68,9.68,0,0,1-2.07-3,9,9,0,0,1,0-7.25,9.73,9.73,0,0,1,2.07-3,10.16,10.16,0,0,1,3-2,9.44,9.44,0,0,1,7.41,0,10.25,10.25,0,0,1,3,2,9.56,9.56,0,0,1,2.07,3,8.85,8.85,0,0,1,.77,3.62,8.74,8.74,0,0,1-.81,3.75,9.84,9.84,0,0,1-5.18,5A9.19,9.19,0,0,1,140.07,219.09Zm0-17.89a8.11,8.11,0,0,0-3.3.67,9.28,9.28,0,0,0-2.73,1.85,8.71,8.71,0,0,0-1.85,2.7,8,8,0,0,0,0,6.44,8.64,8.64,0,0,0,1.85,2.71,9.25,9.25,0,0,0,2.73,1.84,8.37,8.37,0,0,0,6.5,0,9.08,9.08,0,0,0,2.74-1.79,8.77,8.77,0,0,0,1.91-2.69,7.75,7.75,0,0,0,.72-3.33,7.92,7.92,0,0,0-.68-3.22,8.74,8.74,0,0,0-1.86-2.7,9,9,0,0,0-2.73-1.85A8.11,8.11,0,0,0,140.07,201.2Z"/><path class="cls-2" d="M186.21,223.33h-4.67v-14.7l-8,9.53-8.17-9.41v14.58h-4.63V196L173.41,211,186.21,196Z"/><path class="cls-2" d="M186.71,223.83H181V210l-7.55,8.93-7.67-8.84v13.74h-5.63V194.67l13.22,15.52,13.3-15.51Zm-4.67-1h3.67V197.38l-12.3,14.35-12.22-14.34v25.44h3.63V207.41l8.66,10L182,207.26Z"/><path class="cls-2" d="M217.32,223.33h-4.51l-1.9-4.31H200.56l-1.91,4.31h-4.51L205.73,196Zm-8.36-8.9-3.23-7.59-3.23,7.59Z"/><path class="cls-2" d="M218.08,223.83h-5.59l-1.91-4.31h-9.69L199,223.83h-5.59l12.34-29.08Zm-4.94-1h3.43l-10.84-25.52L194.9,222.83h3.43l1.9-4.31h11Zm-3.42-7.9h-8l4-9.37Zm-6.46-1h5l-2.48-5.81Z"/><path class="cls-2" d="M246.58,209.64a14.45,14.45,0,0,1-2.3,7.61,14,14,0,0,1-3,3.28,12.22,12.22,0,0,1-4.36,2.22,4.54,4.54,0,0,1-.8.21l-1,.2a8.64,8.64,0,0,1-.86.13l-.48,0H223.39V195.91h10.43a5.72,5.72,0,0,1,1,.12,12.69,12.69,0,0,1,1.3.29c.44.12.86.23,1.25.35a3.51,3.51,0,0,1,.78.29,15.23,15.23,0,0,1,3.87,2.45,13.78,13.78,0,0,1,2.64,3.13,12.75,12.75,0,0,1,1.5,3.52A14.5,14.5,0,0,1,246.58,209.64Zm-4.63,0a8.76,8.76,0,0,0-.68-3.38,9.56,9.56,0,0,0-1.89-2.9,9.15,9.15,0,0,0-2.86-2,8.37,8.37,0,0,0-3.56-.76h-5V218.7h4.83a9,9,0,0,0,3.46-.68,9,9,0,0,0,5-4.76A8.76,8.76,0,0,0,242,209.64Z"/><path class="cls-2" d="M233.82,223.83H222.89V195.41h10.93a6.57,6.57,0,0,1,1,.12c.44.08.89.18,1.34.3l1.26.36a3.78,3.78,0,0,1,.89.34,15.31,15.31,0,0,1,4,2.51,14.53,14.53,0,0,1,2.74,3.24,13.43,13.43,0,0,1,1.55,3.66,15,15,0,0,1,.49,3.7,14.39,14.39,0,0,1-.59,4,14.61,14.61,0,0,1-1.79,3.93,14.34,14.34,0,0,1-3.1,3.4,12.93,12.93,0,0,1-4.53,2.31,4.54,4.54,0,0,1-.84.22l-1,.2a7.73,7.73,0,0,1-.9.14Zm-9.93-1h9.93l.43,0c.24,0,.51-.07.81-.13l1-.2a4,4,0,0,0,.73-.19,12,12,0,0,0,4.21-2.14,13.39,13.39,0,0,0,2.89-3.16,13.89,13.89,0,0,0,2.22-7.34,14.4,14.4,0,0,0-.45-3.45,12.72,12.72,0,0,0-1.44-3.39,13.57,13.57,0,0,0-2.56-3,14.47,14.47,0,0,0-3.74-2.36,2.8,2.8,0,0,0-.71-.27L236,196.8c-.43-.11-.85-.21-1.27-.28a5.29,5.29,0,0,0-.86-.11h-9.93Zm8.88-3.63h-5.33V200.08H233a9,9,0,0,1,3.77.8,9.84,9.84,0,0,1,3,2.13,10.1,10.1,0,0,1,2,3.06,9.37,9.37,0,0,1-.08,7.39,9.72,9.72,0,0,1-2.14,3,10,10,0,0,1-3.09,2A9.76,9.76,0,0,1,232.77,219.2Zm-4.33-1h4.33a8.58,8.58,0,0,0,3.27-.64,8.94,8.94,0,0,0,2.78-1.78,8.72,8.72,0,0,0,1.91-2.73,8.08,8.08,0,0,0,.72-3.41,8.37,8.37,0,0,0-.64-3.19A9,9,0,0,0,239,203.7a8.91,8.91,0,0,0-2.71-1.91,8,8,0,0,0-3.35-.71h-4.52Z"/><path class="cls-2" d="M256,223.33h-4.51V195.91H256Z"/><path class="cls-2" d="M256.53,223.83H251V195.41h5.51Zm-4.51-1h3.51V196.41H252Z"/><path class="cls-2" d="M290,215a14.65,14.65,0,0,1-2.53,3.83,15,15,0,0,1-3.17,2.59,13.83,13.83,0,0,1-3.5,1.48,14,14,0,0,1-3.48.46,13.61,13.61,0,0,1-9.79-4.06,14,14,0,0,1-2.9-4.38,13.9,13.9,0,0,1,0-10.6,13.62,13.62,0,0,1,2.9-4.37,13.79,13.79,0,0,1,4.36-3,13.4,13.4,0,0,1,5.43-1.09,13.86,13.86,0,0,1,3.17.39,14.36,14.36,0,0,1,3.26,1.22,13.74,13.74,0,0,1,3.06,2.2,13.52,13.52,0,0,1,2.53,3.35c-.58.44-1.17.86-1.79,1.26s-1.29.85-2,1.34a11.28,11.28,0,0,0-3.71-3.83,8.75,8.75,0,0,0-4.53-1.26,8.47,8.47,0,0,0-3.56.74,9.13,9.13,0,0,0-2.88,2,9.26,9.26,0,0,0-1.93,2.9,8.85,8.85,0,0,0-.7,3.44,8.66,8.66,0,0,0,.74,3.56,9.25,9.25,0,0,0,2,2.88,9.4,9.4,0,0,0,2.9,1.92,8.56,8.56,0,0,0,3.43.7,8.77,8.77,0,0,0,2.27-.33,9.1,9.1,0,0,0,2.39-1,9,9,0,0,0,2.14-1.79,8.45,8.45,0,0,0,1.56-2.56Z"/><path class="cls-2" d="M277.35,223.87a14.06,14.06,0,0,1-10.14-4.21,14.7,14.7,0,0,1-3-4.53,14.4,14.4,0,0,1,0-11,14.09,14.09,0,0,1,7.52-7.6,13.87,13.87,0,0,1,8.91-.73,15.15,15.15,0,0,1,3.38,1.27,14.18,14.18,0,0,1,3.17,2.28,14,14,0,0,1,2.62,3.47l.21.37-.34.26c-.58.45-1.2.89-1.82,1.29s-1.28.84-2,1.33l-.43.31-.28-.45a10.8,10.8,0,0,0-3.55-3.67,8.27,8.27,0,0,0-4.27-1.19,8.18,8.18,0,0,0-3.36.69,8.71,8.71,0,0,0-4.55,4.62,8.37,8.37,0,0,0,0,6.61,8.8,8.8,0,0,0,1.89,2.72,9.09,9.09,0,0,0,2.75,1.82,7.95,7.95,0,0,0,5.37.35,8.81,8.81,0,0,0,2.27-1,8.41,8.41,0,0,0,2-1.69,7.82,7.82,0,0,0,1.46-2.42l.2-.49,5.25,2.46-.21.45a14.83,14.83,0,0,1-2.62,4,15.19,15.19,0,0,1-3.28,2.68,13.83,13.83,0,0,1-3.63,1.53A14.45,14.45,0,0,1,277.35,223.87Zm0-27.46a13.16,13.16,0,0,0-9.43,3.9,13.35,13.35,0,0,0-2.8,14.43,13.76,13.76,0,0,0,2.8,4.22,13.09,13.09,0,0,0,4.2,2.86,13.26,13.26,0,0,0,11.95-.82,14.47,14.47,0,0,0,3.06-2.5,13.51,13.51,0,0,0,2.23-3.25L286,213.66a9.48,9.48,0,0,1-1.44,2.23,10,10,0,0,1-4.78,3,8.69,8.69,0,0,1-6-.4,9.83,9.83,0,0,1-3.05-2,9.73,9.73,0,0,1-2.12-3,9.11,9.11,0,0,1-.78-3.76,9.33,9.33,0,0,1,.74-3.64,9.75,9.75,0,0,1,2-3.05,10.06,10.06,0,0,1,3-2.09,9.36,9.36,0,0,1,8.55.55,11.49,11.49,0,0,1,3.6,3.56l1.57-1.06c.49-.31,1-.64,1.41-1a12.61,12.61,0,0,0-2.22-2.84,12.93,12.93,0,0,0-2.94-2.12,13.76,13.76,0,0,0-6.2-1.56Z"/><path class="cls-2" d="M58.58,270H38.78V242.59h19.8v4.63H43.33v6h11V258h-11v7.31H58.58Z"/><path class="cls-2" d="M89,270l-18.48-16.1V270H65.89V242.59l18.48,16.1v-16.1H89Z"/><path class="cls-2" d="M123.23,270h-3.69v-3.27a13.74,13.74,0,0,1-2.12,1.54,12.64,12.64,0,0,1-2.26,1,13.8,13.8,0,0,1-2.3.57,15.32,15.32,0,0,1-2.19.17,13.4,13.4,0,0,1-5.43-1.09,13.66,13.66,0,0,1-4.36-3A14,14,0,0,1,98,261.61,13.9,13.9,0,0,1,98,251a13.47,13.47,0,0,1,7.25-7.33,13.4,13.4,0,0,1,5.43-1.09A13.67,13.67,0,0,1,114,243a14,14,0,0,1,3.6,1.44,13.63,13.63,0,0,1,3.33,2.64,12.68,12.68,0,0,1,2.47,4h-5.29a9.93,9.93,0,0,0-3.62-3,9.65,9.65,0,0,0-3.77-.76,8.73,8.73,0,0,0-3.43.7,9.76,9.76,0,0,0-2.89,1.91,8.83,8.83,0,0,0-2,2.84,8.42,8.42,0,0,0-.74,3.5,8.26,8.26,0,0,0,.74,3.48,9.17,9.17,0,0,0,2,2.84,9.44,9.44,0,0,0,2.89,1.93,8.73,8.73,0,0,0,3.43.7,10.16,10.16,0,0,0,2-.22,8.47,8.47,0,0,0,2.22-.76,8,8,0,0,0,2.1-1.51,8.64,8.64,0,0,0,1.69-2.45h-9.1v-3.62h13.65Z"/><path class="cls-2" d="M135.91,270H131.4V242.59h4.51Z"/><path class="cls-2" d="M166.68,270l-18.48-16.1V270h-4.66V242.59L162,258.69v-16.1h4.67Z"/><path class="cls-2" d="M194.34,270h-19.8V242.59h19.8v4.63H179.09v6h11V258h-11v7.31h15.25Z"/><path class="cls-2" d="M221.33,270h-19.8V242.59h19.8v4.63H206.08v6h11V258h-11v7.31h15.25Z"/><path class="cls-2" d="M250.78,270.13h-5.25L240,260.79h-6.77v9.34h-4.59V242.71h12.22l.37,0,.64.12c.23,0,.47.11.7.18a5.13,5.13,0,0,1,.54.17,10.13,10.13,0,0,1,2.81,1.58,8.91,8.91,0,0,1,1.88,2.08,8.68,8.68,0,0,1,1.07,2.39,9.5,9.5,0,0,1,.35,2.51,9.89,9.89,0,0,1-.23,2,8.77,8.77,0,0,1-.78,2.12,9.16,9.16,0,0,1-1.42,2,8.94,8.94,0,0,1-2.16,1.7Zm-6.23-18.36a4.69,4.69,0,0,0-.6-2.32,4.36,4.36,0,0,0-2-1.73,4,4,0,0,0-.72-.25,3.52,3.52,0,0,0-.61-.1h-7.43v8.76h7.43a3.08,3.08,0,0,0,1.56-.41,4.32,4.32,0,0,0,1.23-1.07,5.31,5.31,0,0,0,.81-1.42A4,4,0,0,0,244.55,251.77Z"/><path class="cls-3" d="M135.67,76.37A22.12,22.12,0,0,0,126,86.9l19.55-3.56Z"/><path class="cls-4" d="M125,89.6a22,22,0,0,0,.65,14.32L137,87.42Z"/><path class="cls-5" d="M152.56,74.61A22,22,0,0,0,142.28,74a23,23,0,0,0-3.85,1.07l16.35,11.71Z"/><path class="cls-6" d="M165.85,85.57a22.1,22.1,0,0,0-10.28-9.81l3.57,19.63Z"/><path class="cls-7" d="M156.86,115.21a22.13,22.13,0,0,0,9.57-10.38l-19.53,3.55Z"/><path class="cls-8" d="M140,117a22.32,22.32,0,0,0,13.44-.3l-15.6-11.54Z"/><path class="cls-9" d="M126.86,106.48A22.12,22.12,0,0,0,137.11,116L133.59,96.6Z"/><path class="cls-10" d="M167.42,102.18A22,22,0,0,0,168,91.85a22.83,22.83,0,0,0-.92-3.46L155.9,104.28Z"/><path class="cls-11" d="M179.38,66.45l-1.32-7.27-13.8,2.51,1.37,7.53,13.8-2.5,1.16,6.41.42,2.29,5.22,28.7-13.11,2.38a29.26,29.26,0,0,0-49.4-29.94l-27.2,5,0,.22,1.17,6.46,5.64,31,1.16,6.4,0,.28L126,122a33.22,33.22,0,0,1-6-5.82l-10,1.8-5.64-31,14.48-2.63a29.26,29.26,0,0,0,49.57,29.9l25.66-4.66,0-.28L193,102.89l-5.64-31-1.17-6.47,0-.22Zm-58.11,33.63a25.1,25.1,0,1,1,29.18,20.2A25.13,25.13,0,0,1,121.27,100.08Z"/><path class="cls-12" d="M229,139a3.27,3.27,0,0,0-2.4,2.11,1,1,0,0,1-1.11.72c-2.8,0-5.6,0-8.4,0a.94.94,0,0,1-1-.95c0-4.5,0-9,0-13.5a1.42,1.42,0,0,0-.09-.64c-.38-.82,2.38-11,2.57-12.68h7a1,1,0,0,1,1,.73,3.38,3.38,0,0,0,2.31,2.1,8.22,8.22,0,0,0,4.81-.13,6,6,0,0,0,3.77-7.43c-1.14-3.74-4.75-5.18-8.49-4.29a3.21,3.21,0,0,0-2.36,2,1.16,1.16,0,0,1-1.32.82h-6.54V95.62c2.29,0,4.58,0,6.87,0a1.22,1.22,0,0,1,.87.62,3.83,3.83,0,0,0,3,2.33,8.1,8.1,0,0,0,5.45-.86c3.52-2.07,4-6.06,1.36-9.14-1.74-2-4-2.48-6.47-2.21a3.89,3.89,0,0,0-3.21,2.29,1.14,1.14,0,0,1-1.27.75h-6.57V77.11c2.28,0,4.56,0,6.84,0a.91.91,0,0,1,1,.7,3.31,3.31,0,0,0,2.22,2.07,8.15,8.15,0,0,0,4.91-.1,6.23,6.23,0,0,0,3.89-7c-1.16-4.08-4.45-5.46-8.34-4.75a3.8,3.8,0,0,0-2.7,2.35.94.94,0,0,1-1,.6h-7a29.62,29.62,0,0,0-2.4-7.74,6.13,6.13,0,0,1-.47-3.14,33.5,33.5,0,0,0,.52-3.31c0-3.29-.05-6.57.07-9.85,0-.48-.12-2.4-.09-2.87a.89.89,0,0,1,.9-.85c2.83,0,5.66,0,8.49,0a1,1,0,0,1,1.06.68A3,3,0,0,0,228.87,46a14.78,14.78,0,0,0,3.38.26,6.23,6.23,0,0,0,5.46-5.71c.16-4.35-3.65-7.64-8.75-6.35a3.24,3.24,0,0,0-2.28,2,1.24,1.24,0,0,1-1.38.87c-4.74,0-9.47,0-14.21,0-.86,0-1.15.2-1.14,1.11.05,4.42,0,8.83,0,13.24,0,.81-.16,1.15-1,1.11-.35-.39-.56-.59-.56-.59L187.1,28.32l-.47-.56c4.36,0,8.72,0,13.08,0,.8,0,1-.21,1-1,0-4.79,0-9.58,0-14.38a1.46,1.46,0,0,1,.66-1.38,5.9,5.9,0,0,0,2-6.93,6.07,6.07,0,0,0-2.4-3,6.16,6.16,0,0,0-7,10.1,1.64,1.64,0,0,1,.54,1.12c0,2.79,0,5.59.06,8.38,0,.78-.24,1-1,1-4.5,0-9,0-13.5,0a1.22,1.22,0,0,0-.34,0,7.87,7.87,0,0,1-3.31-.23c-2.74-.81-5.44-1.37-7-1.66a22.49,22.49,0,0,0-2.45-.32h-.15c0-2.39,0-4.79,0-7.18a1.64,1.64,0,0,1,.59-1.12,6.22,6.22,0,0,0,2.34-6.21A6.46,6.46,0,0,0,164.57.06,6.29,6.29,0,0,0,158,3.88,6,6,0,0,0,159.91,11a1.67,1.67,0,0,1,.74,1.53c0,2.16,0,4.32,0,6.48l-12.31-.85V12.29a1.34,1.34,0,0,1,.61-1.24,5.94,5.94,0,0,0,2.18-6.69A6.19,6.19,0,0,0,145.36,0a6.27,6.27,0,0,0-5.91,4,6.14,6.14,0,0,0,2.07,7.06,1.69,1.69,0,0,1,.6,1.12c0,1.82,0,3.64,0,5.46l-12.27-.86V12.25a1.61,1.61,0,0,1,.52-1.09,6.12,6.12,0,0,0,1.86-7.7,6,6,0,0,0-7.37-3.1,5.9,5.9,0,0,0-4.22,4.81,6,6,0,0,0,2.41,5.94,1.54,1.54,0,0,1,.57,1c0,1.67,0,3.34,0,5a20.62,20.62,0,0,0-4.24,1.32l-6,2.62c-.14.06-.27.11-.4.18a4.56,4.56,0,0,1-2.4.32h-.29c-4.5,0-9,0-13.5,0-1,0,0-7.63-.8-9.41-.13-.29.14-.79.43-1a6.1,6.1,0,0,0,2.25-6.9A5.87,5.87,0,0,0,95.86.75,6.33,6.33,0,0,0,87,4.09a5.9,5.9,0,0,0,2,6.88,1.55,1.55,0,0,1,.7,1.45c0,4.77,0,9.53,0,14.29,0,.84.22,1.09,1.08,1.09,4.55,0,9.1,0,13.66,0L80.73,50a.83.83,0,0,0-.23.23c0-4.06,0-8.12,0-12.17A1.07,1.07,0,0,0,79.45,37c-4.77,0-9.53,0-14.3,0-.63,0-1.05-.09-1.33-.81a3,3,0,0,0-2.26-2A14.24,14.24,0,0,0,58.18,34,6.2,6.2,0,0,0,53,41.83c1.23,3.75,4.69,5.06,8.39,4.23a3.32,3.32,0,0,0,2.48-2.14A1,1,0,0,1,65,43.2c2.8,0,5.61,0,8.41,0,.74,0,.94.23.94,1,0,4.53,0,9.06,0,13.59,0,.35.22,7.85.06,9.66l-.3,3.56h-9.2a1,1,0,0,1-1-.74,3.34,3.34,0,0,0-2.31-2.1,8.17,8.17,0,0,0-4.82.13A6.34,6.34,0,0,0,53,75.64c1.19,3.8,4.81,5.24,8.58,4.28a3.26,3.26,0,0,0,2.32-2.07,1.06,1.06,0,0,1,1.2-.74h8.49L72.5,89.41c-2.53,0-5.07,0-7.6,0a1.31,1.31,0,0,1-1-.64,3.93,3.93,0,0,0-3.16-2.34,13.4,13.4,0,0,0-2.1-.06A6,6,0,0,0,53.3,90a5.94,5.94,0,0,0,.31,5.58c1.64,2.67,4.06,3.3,6.83,3.07A4.59,4.59,0,0,0,64,96.12a.89.89,0,0,1,.91-.52c2.36,0,4.72,0,7.08,0l-1,11.85a3.54,3.54,0,0,0,0,.46h-6a.91.91,0,0,1-1-.66,3.37,3.37,0,0,0-2.37-2.15,8.23,8.23,0,0,0-4.74.13c-2.75,1-4.68,4.26-4,6.92,1.17,4.32,4.49,5.57,8.39,4.88a3.39,3.39,0,0,0,2.63-2.21,1,1,0,0,1,1.12-.73c2.07,0,4.13,0,6.2,0a34.61,34.61,0,0,0,2,6.73,15.49,15.49,0,0,1,1.09,5.63v0c0,4.47,0,10,0,14.42,0,.72-.19,1-.93.95-2.81,0-5.61,0-8.42,0a1,1,0,0,1-1.12-.72A3,3,0,0,0,61.57,139a15.29,15.29,0,0,0-3.3-.24,6.17,6.17,0,0,0-5.5,5.76c-.14,4.22,3.53,7.58,8.7,6.31a3.31,3.31,0,0,0,2.35-2.06,1.17,1.17,0,0,1,1.32-.82H79.35c1.15,0,1.15,0,1.16-1.14q0-6.71,0-13.42a1,1,0,0,1,.19-.71c.31.28.63.54.95.8C83.45,135,102.46,156,103,156.91a3.15,3.15,0,0,0,.22.33H90.9a1.16,1.16,0,0,0-1.15,1.15c0,4.74,0,9.47,0,14.21,0,.64-.09,1.05-.81,1.33a2.91,2.91,0,0,0-2,2.18,14.32,14.32,0,0,0-.28,3.33,6.06,6.06,0,0,0,8.94,4.87c3.07-1.67,3.89-4.73,3.13-8a3.1,3.1,0,0,0-2-2.36c-.72-.26-.82-.68-.82-1.32,0-2.72,0-5.44,0-8.15,0-.79.2-1.05,1-1.05,4.44,0,8.89,0,13.33,0l.42,0a8.26,8.26,0,0,1,4.56.73c4.19,1.82,5.11,1.61,8.43,2.62,0,2,0,4,0,6.06a1,1,0,0,1-.7,1.05,3.16,3.16,0,0,0-2.14,2.36,15.34,15.34,0,0,0-.24,2.35,6.26,6.26,0,0,0,5.84,6.42c4.25.13,7.43-3.65,6.29-8.6a3.28,3.28,0,0,0-2-2.47c-.76-.28-.85-.72-.85-1.39,0-1.55,0-3.09,0-4.64.27,0,.54,0,.82,0h11.49v4.7a1.14,1.14,0,0,1-.77,1.27,3.32,3.32,0,0,0-2.08,2.33,8.31,8.31,0,0,0,.15,4.74,6.21,6.21,0,0,0,7.46,3.78c3.93-1.23,5.09-4.86,4.3-8.42a3.37,3.37,0,0,0-2.09-2.43,1.13,1.13,0,0,1-.79-1.25c0-1.57,0-3.15,0-4.72h12.28c0,1.67,0,3.34,0,5a1.24,1.24,0,0,1-.65.85,3.41,3.41,0,0,0-2.11,2.41,15.14,15.14,0,0,0-.22,3.29A6.21,6.21,0,0,0,163.4,185c4.24.11,7.56-3.6,6.28-8.73a3.36,3.36,0,0,0-2.14-2.38,1,1,0,0,1-.73-1.12c0-1.9,0-3.79,0-5.69a47.18,47.18,0,0,0,8.17-2.85c1.32-.24,6.48-1.8,6.48-1.8,2.83,0,5.66,0,8.49,0,.82,0,1,.26,1,1.05,0,2.71,0,6.43,0,9.15,0,.64-.09,1.06-.82,1.32a3.14,3.14,0,0,0-2,2.36c-.75,3.31.06,6.37,3.14,8a6.06,6.06,0,0,0,8.93-4.87,14.32,14.32,0,0,0-.27-3.33,2.94,2.94,0,0,0-2-2.18c-.72-.28-.81-.69-.81-1.33,0-4.74,0-10.47,0-15.21a1.16,1.16,0,0,0-1.15-1.15h-7.26l7.92-6.75A122.39,122.39,0,0,0,209,136.78c.32-.41.64-.89,1-1.4,0,3.85,0,7.71,0,11.57,0,.86.26,1.07,1.09,1.06,4.76,0,9.53,0,14.29,0a1.17,1.17,0,0,1,1.32.82,3.54,3.54,0,0,0,3.2,2.23,16.17,16.17,0,0,0,2.09,0,6.08,6.08,0,0,0,5.34-8.48C235.7,139.18,232.48,138.18,229,139Zm-25.34-24.78a64.22,64.22,0,0,1-21.07,29.12,62,62,0,0,1-85.65-9.69,65.66,65.66,0,0,1,3.17-86,62.48,62.48,0,0,1,41.28-19.09,58.16,58.16,0,0,1,6.05,0,63.86,63.86,0,0,1,49.69,28.62,65.73,65.73,0,0,1,6.53,57.09Z"/></g></g></svg>