<svg xmlns="http://www.w3.org/2000/svg" xmlns:xlink="http://www.w3.org/1999/xlink" viewBox="0 0 729.08 185.04"><defs><style>.cls-1{fill:gray;}.cls-2{fill:#fff;}.cls-3{fill:url(#linear-gradient);}.cls-4{fill:url(#linear-gradient-2);}.cls-5{fill:url(#linear-gradient-3);}.cls-6{fill:url(#linear-gradient-4);}.cls-7{fill:url(#linear-gradient-5);}.cls-8{fill:url(#linear-gradient-6);}.cls-9{fill:url(#linear-gradient-7);}.cls-10{fill:url(#linear-gradient-8);}.cls-11{fill:url(#linear-gradient-9);}.cls-12{fill:url(#linear-gradient-10);}</style><linearGradient id="linear-gradient" x1="73.29" y1="81.63" x2="92.84" y2="81.63" gradientUnits="userSpaceOnUse"><stop offset="0.01" stop-color="#343434"/><stop offset="0.03" stop-color="#414141"/><stop offset="0.4" stop-color="#c2c2c2"/><stop offset="0.78" stop-color="#777"/><stop offset="1"/></linearGradient><linearGradient id="linear-gradient-2" x1="71.42" y1="95.67" x2="84.28" y2="95.67" xlink:href="#linear-gradient"/><linearGradient id="linear-gradient-3" x1="85.74" y1="80.25" x2="102.09" y2="80.25" xlink:href="#linear-gradient"/><linearGradient id="linear-gradient-4" x1="102.88" y1="85.57" x2="113.16" y2="85.57" xlink:href="#linear-gradient"/><linearGradient id="linear-gradient-5" x1="94.21" y1="110.02" x2="113.74" y2="110.02" xlink:href="#linear-gradient"/><linearGradient id="linear-gradient-6" x1="85.15" y1="111.56" x2="100.74" y2="111.56" xlink:href="#linear-gradient"/><linearGradient id="linear-gradient-7" x1="74.16" y1="106.28" x2="84.41" y2="106.28" xlink:href="#linear-gradient"/><linearGradient id="linear-gradient-8" x1="103.21" y1="96.33" x2="115.66" y2="96.33" xlink:href="#linear-gradient"/><linearGradient id="linear-gradient-9" x1="43.82" y1="92.52" x2="141.48" y2="92.52" xlink:href="#linear-gradient"/><linearGradient id="linear-gradient-10" x1="-24.33" y1="-14.22" x2="179.98" y2="172.48" gradientUnits="userSpaceOnUse"><stop offset="0.01" stop-color="#343434"/><stop offset="0.4" stop-color="#c2c2c2"/><stop offset="0.78" stop-color="#777"/><stop offset="0.98" stop-color="#414141"/></linearGradient></defs><g id="Layer_2" data-name="Layer 2"><g id="Layer_1-2" data-name="Layer 1"><path class="cls-1" d="M239.16,82.15H228.74v22.91h-4.6V82.23H214.3V77.64h24.86Z"/><path class="cls-1" d="M266.19,105.33h-4.55V93.39H250.32v11.94h-4.55V77.91h4.51v10.7H261.6V77.91h4.59Z"/><path class="cls-1" d="M292.72,105.33h-19.8V77.91h19.8v4.63H277.47v6h11v4.78h-11v7.32h15.25Z"/><path class="cls-2" d="M332.9,105.33l-18.47-16.1v16.1h-4.67V77.91L328.24,94V77.91h4.66Z"/><path class="cls-2" d="M333.4,106.43l-18.47-16.1v15.5h-5.67v-29l18.48,16.11V77.41h5.66Zm-23.14-1.6h3.67V88.13l18.47,16.11V78.41h-3.66v16.7L310.26,79Z"/><path class="cls-2" d="M368.07,91.64A13.4,13.4,0,0,1,367,97.07a13.75,13.75,0,0,1-3,4.35,13.74,13.74,0,0,1-19.43-.11,14,14,0,0,1-2.89-4.38,13.82,13.82,0,0,1,2.89-15A13.79,13.79,0,0,1,349,79a13.73,13.73,0,0,1,15.19,3A13.74,13.74,0,0,1,367,86.33,13.6,13.6,0,0,1,368.07,91.64Zm-4.63,0a8.4,8.4,0,0,0-.72-3.42,9.16,9.16,0,0,0-2-2.86,9.52,9.52,0,0,0-2.88-2,9,9,0,0,0-7,0,9.52,9.52,0,0,0-2.88,2,9.19,9.19,0,0,0-2,2.86,8.48,8.48,0,0,0,0,6.84,9.08,9.08,0,0,0,2,2.86,9.52,9.52,0,0,0,2.88,2,8.56,8.56,0,0,0,3.5.72,8.79,8.79,0,0,0,3.38-.68,9.56,9.56,0,0,0,2.9-1.89,9.18,9.18,0,0,0,2-2.84A8.25,8.25,0,0,0,363.44,91.64Z"/><path class="cls-2" d="M354.38,105.87a14,14,0,0,1-5.63-1.13,14.23,14.23,0,0,1-4.51-3.08,14.7,14.7,0,0,1-3-4.53,14.52,14.52,0,0,1,0-11,14.09,14.09,0,0,1,7.52-7.6,14.24,14.24,0,0,1,15.75,3.07,14.37,14.37,0,0,1,4.07,10,14.08,14.08,0,0,1-1.13,5.63,14.08,14.08,0,0,1-7.58,7.51A13.89,13.89,0,0,1,354.38,105.87Zm0-27.46a13.16,13.16,0,0,0-9.43,3.9,13.36,13.36,0,0,0-2.79,14.43A13.55,13.55,0,0,0,345,101a13.09,13.09,0,0,0,4.2,2.86,13.44,13.44,0,0,0,10.32,0,13.13,13.13,0,0,0,4.2-2.79,13.39,13.39,0,0,0,2.85-4.2,13,13,0,0,0,1.05-5.23,13.33,13.33,0,0,0-3.79-9.33,13.07,13.07,0,0,0-9.4-3.9Zm0,22.68a9.26,9.26,0,0,1-3.71-.76,10.28,10.28,0,0,1-3-2,9.52,9.52,0,0,1-2.07-3,8.92,8.92,0,0,1,0-7.25,9.56,9.56,0,0,1,2.07-3,10.12,10.12,0,0,1,3-2,9.44,9.44,0,0,1,7.41,0,10.16,10.16,0,0,1,3,2,9.73,9.73,0,0,1,2.07,3,9,9,0,0,1,.76,3.62,8.74,8.74,0,0,1-.81,3.75,9.54,9.54,0,0,1-2.13,3,9.87,9.87,0,0,1-3.05,2A9.15,9.15,0,0,1,354.38,101.09Zm0-17.89a8.11,8.11,0,0,0-3.3.67,9,9,0,0,0-2.73,1.85,8.74,8.74,0,0,0-1.86,2.7,8,8,0,0,0,0,6.44,8.67,8.67,0,0,0,1.86,2.71,9,9,0,0,0,2.73,1.84,8.35,8.35,0,0,0,6.49,0,9,9,0,0,0,2.74-1.79A8.8,8.8,0,0,0,362.23,95a8.06,8.06,0,0,0,0-6.55,8.57,8.57,0,0,0-1.86-2.7,9.1,9.1,0,0,0-2.72-1.85A8.11,8.11,0,0,0,354.38,83.2Z"/><path class="cls-2" d="M400.51,105.33h-4.67V90.63l-8,9.53-8.17-9.41v14.58H375V78L387.71,93,400.51,78Z"/><path class="cls-2" d="M401,105.83h-5.67V92l-7.54,8.93-7.68-8.84v13.74h-5.63V76.67l13.22,15.52L401,76.68Zm-4.67-1H400V79.38l-12.3,14.35L375.49,79.39v25.44h3.63V89.41l8.67,10,8.55-10.13Z"/><path class="cls-2" d="M431.63,105.33h-4.51L425.21,101H414.86l-1.9,4.31h-4.52L420,78Zm-8.36-8.9L420,88.84l-3.23,7.59Z"/><path class="cls-2" d="M432.38,105.83h-5.59l-1.91-4.31h-9.69l-1.91,4.31h-5.59L420,76.75Zm-4.94-1h3.43L420,79.31,409.2,104.83h3.43l1.91-4.31h11ZM424,96.93h-8l4-9.37Zm-6.46-1h4.95L420,90.12Z"/><path class="cls-2" d="M460.88,91.64a14.12,14.12,0,0,1-.56,3.81,14.43,14.43,0,0,1-1.73,3.8,14,14,0,0,1-3,3.28,12.22,12.22,0,0,1-4.36,2.22,4.4,4.4,0,0,1-.79.21l-1,.2c-.32.06-.61.11-.85.13l-.49,0H437.7V77.91h10.42a5.6,5.6,0,0,1,.95.12,12.87,12.87,0,0,1,1.31.29l1.24.35a3.51,3.51,0,0,1,.78.29,15.23,15.23,0,0,1,3.87,2.45,13.83,13.83,0,0,1,2.65,3.13,13,13,0,0,1,1.49,3.52A14.5,14.5,0,0,1,460.88,91.64Zm-4.63,0a8.76,8.76,0,0,0-.68-3.38,9.2,9.2,0,0,0-1.89-2.9,9,9,0,0,0-2.86-2,8.32,8.32,0,0,0-3.55-.76h-5V100.7h4.82a9,9,0,0,0,3.46-.68,9,9,0,0,0,5-4.76A8.61,8.61,0,0,0,456.25,91.64Z"/><path class="cls-2" d="M448.12,105.83H437.2V77.41h10.92a6.57,6.57,0,0,1,1,.12q.66.12,1.35.3l1.26.36a4.27,4.27,0,0,1,.89.34A15.25,15.25,0,0,1,456.6,81a14.53,14.53,0,0,1,2.74,3.24,13.46,13.46,0,0,1,1.56,3.66,15,15,0,0,1,.48,3.7,14.75,14.75,0,0,1-.58,4A14.92,14.92,0,0,1,459,99.52a14.61,14.61,0,0,1-3.11,3.4,12.85,12.85,0,0,1-4.53,2.31,4.33,4.33,0,0,1-.84.22l-1,.2a7.42,7.42,0,0,1-.9.14Zm-9.92-1h9.92l.43,0c.24,0,.51-.07.82-.13l1-.2a4.09,4.09,0,0,0,.72-.19,11.91,11.91,0,0,0,4.22-2.14A13.35,13.35,0,0,0,458.16,99a14,14,0,0,0,1.68-3.66,13.6,13.6,0,0,0,.54-3.68,13.91,13.91,0,0,0-.45-3.45,12.4,12.4,0,0,0-1.44-3.39,13.79,13.79,0,0,0-2.55-3,14.47,14.47,0,0,0-3.74-2.36,3.2,3.2,0,0,0-.72-.27l-1.23-.35c-.43-.11-.85-.21-1.26-.28a5.49,5.49,0,0,0-.87-.11H438.2Zm8.87-3.63h-5.32V82.08h5.52a9,9,0,0,1,3.76.8,9.66,9.66,0,0,1,5,5.19,9.37,9.37,0,0,1-.08,7.39,9.85,9.85,0,0,1-2.13,3,10,10,0,0,1-3.1,2A9.76,9.76,0,0,1,447.07,101.2Zm-4.32-1h4.32a8.54,8.54,0,0,0,3.27-.64,8.94,8.94,0,0,0,2.78-1.78A8.74,8.74,0,0,0,455,95.05a8.23,8.23,0,0,0,.71-3.41,8.37,8.37,0,0,0-.64-3.19,9,9,0,0,0-1.79-2.75,8.87,8.87,0,0,0-2.7-1.91,8.05,8.05,0,0,0-3.35-.71h-4.52Z"/><path class="cls-2" d="M470.33,105.33h-4.51V77.91h4.51Z"/><path class="cls-2" d="M470.83,105.83h-5.51V77.41h5.51Zm-4.51-1h3.51V78.41h-3.51Z"/><path class="cls-2" d="M504.33,97a14.41,14.41,0,0,1-2.53,3.83,14.71,14.71,0,0,1-3.17,2.59,13.68,13.68,0,0,1-3.5,1.48,14,14,0,0,1-3.48.46,13.57,13.57,0,0,1-9.78-4.06,13.83,13.83,0,0,1-2.9-4.38,13.79,13.79,0,0,1,2.9-15,13.75,13.75,0,0,1,4.35-3,13.44,13.44,0,0,1,5.43-1.09,13.8,13.8,0,0,1,3.17.39,14.62,14.62,0,0,1,3.27,1.22,13.92,13.92,0,0,1,3.05,2.2,13.52,13.52,0,0,1,2.53,3.35c-.57.44-1.17.86-1.79,1.26s-1.28.85-2,1.34a11.4,11.4,0,0,0-3.72-3.83,8.7,8.7,0,0,0-4.53-1.26,8.51,8.51,0,0,0-3.56.74,9.36,9.36,0,0,0-2.88,2,9.06,9.06,0,0,0-1.92,2.9,8.92,8.92,0,0,0,0,7,9.33,9.33,0,0,0,4.91,4.8,8.51,8.51,0,0,0,3.42.7,8.71,8.71,0,0,0,2.27-.33,9.3,9.3,0,0,0,2.4-1,9.18,9.18,0,0,0,2.14-1.79A8.63,8.63,0,0,0,500,95Z"/><path class="cls-2" d="M491.65,105.87a14,14,0,0,1-5.63-1.13,14.34,14.34,0,0,1-4.51-3.08,14.49,14.49,0,0,1-3-4.53,14.4,14.4,0,0,1,0-11,14.2,14.2,0,0,1,3-4.54A14.45,14.45,0,0,1,486,78.54a13.87,13.87,0,0,1,8.91-.73,15.22,15.22,0,0,1,3.39,1.27,13.93,13.93,0,0,1,5.79,5.75l.2.37-.34.26c-.58.45-1.19.89-1.82,1.29s-1.27.84-2,1.33l-.43.31-.28-.45a10.8,10.8,0,0,0-3.55-3.67,8.37,8.37,0,0,0-7.63-.5,9,9,0,0,0-2.72,1.88,8.81,8.81,0,0,0-1.82,2.74,8.43,8.43,0,0,0,0,6.61,8.66,8.66,0,0,0,1.9,2.72,8.92,8.92,0,0,0,2.74,1.82,7.95,7.95,0,0,0,5.37.35,8.81,8.81,0,0,0,2.27-1,8.41,8.41,0,0,0,2-1.69,8,8,0,0,0,1.47-2.42l.19-.49L505,96.77l-.21.45a15,15,0,0,1-2.61,4,15.68,15.68,0,0,1-3.28,2.68,14,14,0,0,1-3.63,1.53A14.52,14.52,0,0,1,491.65,105.87Zm0-27.46a13.16,13.16,0,0,0-9.43,3.9,13.36,13.36,0,0,0-2.79,14.43,13.55,13.55,0,0,0,2.79,4.22,13.09,13.09,0,0,0,4.2,2.86,12.94,12.94,0,0,0,8.59.6,13.09,13.09,0,0,0,3.36-1.42,14.28,14.28,0,0,0,3.07-2.5,13.77,13.77,0,0,0,2.22-3.25l-3.39-1.59a9.18,9.18,0,0,1-1.44,2.23,10,10,0,0,1-4.78,3,8.69,8.69,0,0,1-6-.4,10,10,0,0,1-3-2,9.54,9.54,0,0,1-2.11-3,9.11,9.11,0,0,1-.78-3.76,9.32,9.32,0,0,1,.73-3.64,9.7,9.7,0,0,1,5.07-5.14,9.11,9.11,0,0,1,3.76-.78,9.31,9.31,0,0,1,4.79,1.33A11.47,11.47,0,0,1,500,87c.55-.38,1.08-.73,1.58-1.06s.95-.64,1.41-1a12.83,12.83,0,0,0-5.16-5,13.84,13.84,0,0,0-6.21-1.56Z"/><path class="cls-2" d="M536.89,105h-19.8V77.59h19.8v4.63H521.64v6h11V93h-11v7.31h15.25Z"/><path class="cls-2" d="M567.34,105l-18.47-16.1V105H544.2V77.59l18.47,16.1V77.59h4.67Z"/><path class="cls-2" d="M601.53,105h-3.69v-3.27a13.27,13.27,0,0,1-2.12,1.54,12.33,12.33,0,0,1-2.26,1,13.69,13.69,0,0,1-2.29.57,15.57,15.57,0,0,1-2.2.17,13.44,13.44,0,0,1-5.43-1.09,13.61,13.61,0,0,1-4.35-3,13.83,13.83,0,0,1-2.9-4.38,13.9,13.9,0,0,1,0-10.6,13.56,13.56,0,0,1,7.25-7.33A13.44,13.44,0,0,1,589,77.59a13.81,13.81,0,0,1,3.29.45,14.05,14.05,0,0,1,3.59,1.44,13.26,13.26,0,0,1,3.33,2.64,12.68,12.68,0,0,1,2.47,4h-5.29a9.85,9.85,0,0,0-3.62-3,9.58,9.58,0,0,0-3.87-.76,8.82,8.82,0,0,0-3.32.7,9.62,9.62,0,0,0-2.9,1.91,9,9,0,0,0-2,2.84,8.26,8.26,0,0,0-.74,3.5,8.11,8.11,0,0,0,.74,3.48,9.31,9.31,0,0,0,2,2.84,9.49,9.49,0,0,0,2.9,1.93,8.72,8.72,0,0,0,3.42.7,10.08,10.08,0,0,0,2-.22,8.47,8.47,0,0,0,2.22-.76,8,8,0,0,0,2.1-1.51A8.44,8.44,0,0,0,597,95.33h-9.1V91.71h13.65Z"/><path class="cls-2" d="M614.21,105H609.7V77.59h4.51Z"/><path class="cls-2" d="M645,105l-18.47-16.1V105h-4.67V77.59l18.48,16.1V77.59H645Z"/><path class="cls-2" d="M672.64,105h-19.8V77.59h19.8v4.63H657.39v6h11V93h-11v7.31h15.25Z"/><path class="cls-2" d="M699.64,105h-19.8V77.59h19.8v4.63H684.39v6h11V93h-11v7.31h15.25Z"/><path class="cls-2" d="M729.08,105.13h-5.25l-5.52-9.34h-6.77v9.34H707V77.71h12.21l.37,0,.64.12c.24,0,.47.11.7.18a4.73,4.73,0,0,1,.55.17,10.07,10.07,0,0,1,2.8,1.58,8.75,8.75,0,0,1,1.89,2.08,9,9,0,0,1,1.06,2.39,9.12,9.12,0,0,1,.36,2.51,9.28,9.28,0,0,1-.24,2,8,8,0,0,1-.78,2.12,8.83,8.83,0,0,1-1.42,2,8.94,8.94,0,0,1-2.16,1.7Zm-6.22-18.36a4.6,4.6,0,0,0-.61-2.32,4.31,4.31,0,0,0-2-1.73,4,4,0,0,0-.72-.25,3.3,3.3,0,0,0-.6-.1h-7.43v8.76H719a3,3,0,0,0,1.55-.41,4.32,4.32,0,0,0,1.23-1.07,5.63,5.63,0,0,0,.82-1.42A4.16,4.16,0,0,0,722.86,86.77Z"/><path class="cls-3" d="M83,76.37A22.19,22.19,0,0,0,73.29,86.9l19.55-3.56Z"/><path class="cls-4" d="M72.31,89.6a22.08,22.08,0,0,0-.54,10.16A22.65,22.65,0,0,0,73,103.92l11.32-16.5Z"/><path class="cls-5" d="M99.87,74.61A22.09,22.09,0,0,0,89.58,74a23.16,23.16,0,0,0-3.84,1.07l16.35,11.71Z"/><path class="cls-6" d="M113.16,85.57a22.19,22.19,0,0,0-10.28-9.81l3.57,19.63Z"/><path class="cls-7" d="M104.17,115.21a22.23,22.23,0,0,0,9.57-10.38l-19.53,3.55Z"/><path class="cls-8" d="M87.3,117a22,22,0,0,0,10.2.54,21.69,21.69,0,0,0,3.24-.84L85.15,105.19Z"/><path class="cls-9" d="M74.16,106.48A22.12,22.12,0,0,0,84.41,116L80.89,96.6Z"/><path class="cls-10" d="M114.72,102.18a22.11,22.11,0,0,0,.59-10.33,22.85,22.85,0,0,0-.93-3.46l-11.17,15.89Z"/><path class="cls-11" d="M126.68,66.45l-1.32-7.27-13.8,2.51,1.37,7.53,13.8-2.5,1.17,6.41.41,2.29,5.22,28.7-13.1,2.38A29.27,29.27,0,0,0,71,76.56l-27.2,5,0,.22L45,88.19l5.63,31,1.16,6.4.05.28L73.32,122a33.22,33.22,0,0,1-6-5.82L57.4,118,51.77,87l14.48-2.63a29.26,29.26,0,0,0,49.56,29.9l25.67-4.66-.06-.28-1.16-6.41-5.63-31-1.18-6.47,0-.22ZM68.57,100.08a25.1,25.1,0,1,1,29.19,20.2A25.13,25.13,0,0,1,68.57,100.08Z"/><path class="cls-12" d="M176.3,139a3.26,3.26,0,0,0-2.4,2.11,1,1,0,0,1-1.12.72c-2.8,0-5.6,0-8.4,0a.94.94,0,0,1-.95-.95c0-4.5,0-9,0-13.5a1.56,1.56,0,0,0-.1-.64c-.37-.82,2.38-11,2.58-12.68h6.94a1,1,0,0,1,1,.73,3.36,3.36,0,0,0,2.31,2.1,8.18,8.18,0,0,0,4.8-.13,6,6,0,0,0,3.77-7.43c-1.13-3.74-4.74-5.18-8.48-4.29a3.21,3.21,0,0,0-2.37,2c-.27.71-.67.82-1.32.82h-6.53V95.62c2.29,0,4.57,0,6.86,0a1.25,1.25,0,0,1,.88.62,3.8,3.8,0,0,0,3,2.33,8.11,8.11,0,0,0,5.45-.86c3.52-2.07,4-6.06,1.35-9.14-1.74-2-3.95-2.48-6.47-2.21a3.91,3.91,0,0,0-3.21,2.29,1.14,1.14,0,0,1-1.27.75h-6.56V77.11c2.28,0,4.56,0,6.84,0a.9.9,0,0,1,.95.7,3.31,3.31,0,0,0,2.22,2.07,8.15,8.15,0,0,0,4.91-.1,6.22,6.22,0,0,0,3.89-7c-1.16-4.08-4.45-5.46-8.34-4.75a3.8,3.8,0,0,0-2.7,2.35.94.94,0,0,1-1,.6h-7a29.26,29.26,0,0,0-2.41-7.74,6.13,6.13,0,0,1-.46-3.14,33.47,33.47,0,0,0,.51-3.31c0-3.29,0-6.57.07-9.85,0-.48-.11-2.4-.09-2.87a.89.89,0,0,1,.91-.85c2.83,0,5.66,0,8.49,0a.94.94,0,0,1,1,.68A3,3,0,0,0,176.17,46a14.83,14.83,0,0,0,3.38.26A6.22,6.22,0,0,0,185,40.51c.16-4.35-3.64-7.64-8.74-6.35a3.25,3.25,0,0,0-2.29,2,1.23,1.23,0,0,1-1.38.87c-4.74,0-9.47,0-14.21,0-.86,0-1.15.2-1.14,1.11.05,4.42,0,8.83,0,13.24,0,.81-.16,1.15-1,1.11-.35-.39-.56-.59-.56-.59L134.4,28.32l-.46-.56c4.35,0,8.71,0,13.07,0,.8,0,1-.21,1-1,0-4.79,0-9.58,0-14.38a1.47,1.47,0,0,1,.67-1.38,5.9,5.9,0,0,0,2-6.93,6,6,0,0,0-2.4-3,6.16,6.16,0,0,0-7,10.1,1.63,1.63,0,0,1,.53,1.12c.06,2.79,0,5.59.06,8.38,0,.78-.23,1-1,1-4.5,0-9,0-13.5,0a1.22,1.22,0,0,0-.34,0,7.88,7.88,0,0,1-3.31-.23c-2.74-.81-5.44-1.37-7-1.66a22.49,22.49,0,0,0-2.45-.32h-.15c0-2.39,0-4.79,0-7.18a1.64,1.64,0,0,1,.59-1.12,6.24,6.24,0,0,0,2.35-6.21A6.48,6.48,0,0,0,111.88.06a6.29,6.29,0,0,0-6.56,3.82A6.05,6.05,0,0,0,107.21,11a1.67,1.67,0,0,1,.74,1.53V19l-12.32-.85c0-1.95,0-3.89,0-5.83a1.36,1.36,0,0,1,.61-1.24,5.94,5.94,0,0,0,2.18-6.69,6.16,6.16,0,0,0-11.66-.31,6.13,6.13,0,0,0,2.07,7.06,1.68,1.68,0,0,1,.59,1.12c0,1.82,0,3.64,0,5.46l-12.27-.86c0-1.52,0-3,0-4.58a1.56,1.56,0,0,1,.51-1.09,6.11,6.11,0,0,0,1.86-7.7A6.18,6.18,0,0,0,68,5.17a6,6,0,0,0,2.42,5.94,1.54,1.54,0,0,1,.57,1c0,1.67,0,3.34,0,5a20.43,20.43,0,0,0-4.24,1.32l-6,2.62-.4.18a4.52,4.52,0,0,1-2.39.32h-.3c-4.5,0-9,0-13.5,0-1,0,0-7.63-.8-9.41-.13-.29.14-.79.43-1A6.1,6.1,0,0,0,46,4.29,5.83,5.83,0,0,0,43.16.75a6.32,6.32,0,0,0-8.81,3.34,5.9,5.9,0,0,0,2,6.88,1.55,1.55,0,0,1,.7,1.45c0,4.77,0,9.53,0,14.29,0,.84.22,1.09,1.07,1.09,4.55,0,9.11,0,13.66,0L28,50a1.22,1.22,0,0,0-.23.23c0-4.06,0-8.12,0-12.17A1.07,1.07,0,0,0,26.75,37c-4.76,0-9.53,0-14.29,0-.64,0-1.06-.09-1.33-.81a3,3,0,0,0-2.27-2A14.21,14.21,0,0,0,5.48,34,6.21,6.21,0,0,0,.31,41.83C1.55,45.58,5,46.89,8.7,46.06a3.31,3.31,0,0,0,2.49-2.14,1,1,0,0,1,1.11-.72c2.8,0,5.61,0,8.42,0,.73,0,.94.23.93,1,0,4.53,0,9.06,0,13.59,0,.35.22,7.85.06,9.66l-.3,3.56h-9.2a1,1,0,0,1-1-.74,3.32,3.32,0,0,0-2.3-2.1A8.2,8.2,0,0,0,4,68.23,6.34,6.34,0,0,0,.27,75.64c1.19,3.8,4.81,5.24,8.58,4.28a3.29,3.29,0,0,0,2.33-2.07,1,1,0,0,1,1.19-.74h8.49l-1.05,12.3c-2.54,0-5.08,0-7.61,0a1.31,1.31,0,0,1-.95-.64A3.93,3.93,0,0,0,8.09,86.4,13.37,13.37,0,0,0,6,86.34,6,6,0,0,0,.6,90,6,6,0,0,0,.91,95.6C2.55,98.27,5,98.9,7.75,98.67a4.57,4.57,0,0,0,3.53-2.55.9.9,0,0,1,.92-.52c2.36,0,4.72,0,7.07,0l-1,11.85c0,.15,0,.31,0,.46h-6a.92.92,0,0,1-1-.66,3.36,3.36,0,0,0-2.37-2.15,8.23,8.23,0,0,0-4.74.13c-2.75,1-4.68,4.26-4,6.92,1.18,4.32,4.5,5.57,8.39,4.88a3.41,3.41,0,0,0,2.64-2.21,1,1,0,0,1,1.11-.73c2.07,0,4.14,0,6.2,0a34.61,34.61,0,0,0,2,6.73,15.28,15.28,0,0,1,1.09,5.63v0c0,4.47,0,10,0,14.42,0,.72-.2,1-.94.95-2.8,0-5.61,0-8.41,0a1,1,0,0,1-1.12-.72A3,3,0,0,0,8.87,139a15.29,15.29,0,0,0-3.3-.24,6.17,6.17,0,0,0-5.5,5.76c-.13,4.22,3.53,7.58,8.7,6.31a3.31,3.31,0,0,0,2.35-2.06,1.18,1.18,0,0,1,1.33-.82h14.2c1.16,0,1.16,0,1.16-1.14,0-4.47,0-8.94,0-13.42a1,1,0,0,1,.19-.71c.3.28.62.54.94.8C30.75,135,49.76,156,50.3,156.91a3.15,3.15,0,0,0,.22.33H38.2a1.16,1.16,0,0,0-1.15,1.15q0,7.11,0,14.21c0,.64-.09,1.05-.81,1.33a2.94,2.94,0,0,0-2,2.18,14.32,14.32,0,0,0-.27,3.33,6.06,6.06,0,0,0,8.93,4.87c3.08-1.67,3.89-4.73,3.14-8a3.14,3.14,0,0,0-2-2.36c-.72-.26-.83-.68-.82-1.32,0-2.72,0-5.44,0-8.15,0-.79.2-1.05,1-1.05,4.44,0,8.88,0,13.32,0l.42,0a8.28,8.28,0,0,1,4.57.73c4.18,1.82,5.1,1.61,8.43,2.62v6.06a1,1,0,0,1-.69,1.05,3.18,3.18,0,0,0-2.15,2.36,14.18,14.18,0,0,0-.23,2.35A6.25,6.25,0,0,0,73.73,185c4.25.13,7.43-3.65,6.29-8.6a3.26,3.26,0,0,0-2-2.47c-.75-.28-.85-.72-.85-1.39V167.9l.82,0H89.45v4.7a1.14,1.14,0,0,1-.77,1.27,3.31,3.31,0,0,0-2.07,2.33,8.23,8.23,0,0,0,.15,4.74,6.19,6.19,0,0,0,7.45,3.78c3.94-1.23,5.09-4.86,4.31-8.42a3.39,3.39,0,0,0-2.09-2.43,1.13,1.13,0,0,1-.8-1.25v-4.72h12.29c0,1.67,0,3.34,0,5a1.25,1.25,0,0,1-.64.85,3.37,3.37,0,0,0-2.11,2.41,14.54,14.54,0,0,0-.23,3.29A6.21,6.21,0,0,0,110.7,185c4.25.11,7.57-3.6,6.28-8.73a3.34,3.34,0,0,0-2.14-2.38,1,1,0,0,1-.72-1.12v-5.69a46.89,46.89,0,0,0,8.17-2.85c1.32-.24,6.49-1.8,6.49-1.8,2.82,0,5.65,0,8.48,0,.83,0,1,.26,1,1.05-.05,2.71,0,6.43,0,9.15,0,.64-.1,1.06-.82,1.32a3.1,3.1,0,0,0-2,2.36c-.75,3.31.06,6.37,3.13,8a6.06,6.06,0,0,0,8.94-4.87,14.88,14.88,0,0,0-.27-3.33,2.93,2.93,0,0,0-2-2.18,1.17,1.17,0,0,1-.81-1.33c0-4.74,0-10.47,0-15.21a1.16,1.16,0,0,0-1.15-1.15H136l7.92-6.75a122.85,122.85,0,0,0,12.36-12.71c.32-.41.65-.89,1-1.4,0,3.85,0,7.71,0,11.57,0,.86.26,1.07,1.09,1.06,4.77,0,9.53,0,14.29,0a1.18,1.18,0,0,1,1.33.82,3.52,3.52,0,0,0,3.19,2.23,16.23,16.23,0,0,0,2.09,0,6.08,6.08,0,0,0,5.34-8.48C183,139.18,179.78,138.18,176.3,139ZM151,114.21a64.15,64.15,0,0,1-21.07,29.12,62,62,0,0,1-85.65-9.69,65.64,65.64,0,0,1,3.18-86A62.46,62.46,0,0,1,88.68,28.54a58.33,58.33,0,0,1,6.06,0,63.84,63.84,0,0,1,49.68,28.62A65.73,65.73,0,0,1,151,114.21Z"/></g></g></svg>